Coordinates
version=1
nRows=18
nColumns=28
inDegrees=yes

Units are S.I. units (second, meters, Newtons, ...)
Angles are in degrees.

endheader
time	pelvis_tilt	pelvis_list	pelvis_rotation	pelvis_tx	pelvis_ty	pelvis_tz	hip_flexion_r	hip_adduction_r	hip_rotation_r	knee_angle_r	ankle_angle_r	subtalar_angle_r	mtp_angle_r	hip_flexion_l	hip_adduction_l	hip_rotation_l	knee_angle_l	socket_flexion	socket_adduction	socket_rotation	socket_tx	socket_ty	socket_tz	foot_flex	lumbar_extension	lumbar_bending	lumbar_rotation
      0.95000000	      5.56366495	      0.04804720	     -3.72590534	      0.42186283	      1.04146561	      0.32798140	     -1.26556632	      2.74113478	     -5.11423063	    -18.07614387	      6.20834561	     -3.11969230	     19.23925568	      4.35304220	     -0.95313046	     -1.99274742	    -54.25659422	     -1.28710614	      0.00000000	      0.00000000	      0.00000000	      0.00000000	      0.00000000	      0.06817865	    -13.05095641	     -0.32220415	      5.48568707
      0.95416667	      5.52883312	      0.13105218	     -3.91331792	      0.42661807	      1.04220246	      0.32846629	     -1.71180081	      2.62702007	     -5.06857665	    -17.68168965	      6.18832412	     -2.90818422	     19.34927084	      4.95981570	     -0.86395674	     -1.86858963	    -53.84798220	     -1.30678279	      0.00000000	      0.00000000	      0.00000000	      0.00000000	      0.00000000	      0.03427930	    -13.05719368	     -0.45732292	      5.57254581
      0.95833333	      5.48493761	      0.21960165	     -4.11725265	      0.43132408	      1.04292546	      0.32904738	     -2.12890602	      2.50493447	     -5.02967208	    -17.30877126	      6.08345021	     -2.67429954	     19.43363328	      5.55460854	     -0.78067373	     -1.76488139	    -53.34352737	     -1.26531360	      0.00000000	      0.00000000	      0.00000000	      0.00000000	      0.00000000	      0.02646924	    -13.06883352	     -0.62887485	      5.69158835
      0.96250000	      5.44020957	      0.33752285	     -4.33872429	      0.43613031	      1.04363312	      0.32958560	     -2.55456490	      2.34265118	     -4.97072639	    -16.92033292	      5.93024985	     -2.38900625	     19.54155080	      6.09134718	     -0.64981676	     -1.64096764	    -52.71037449	     -1.19314771	      0.00000000	      0.00000000	      0.00000000	      0.00000000	      0.00000000	      0.03302275	    -13.04264615	     -0.81180532	      5.86863315
      0.96666667	      5.41415805	      0.44453837	     -4.57753713	      0.44083623	      1.04429998	      0.33014600	     -2.96594609	      2.18309721	     -4.93031428	    -16.58546887	      5.79933106	     -2.12129995	     19.66563542	      6.61336347	     -0.53667503	     -1.52876728	    -52.06812207	     -1.11722615	      0.00000000	      0.00000000	      0.00000000	      0.00000000	      0.00000000	      0.04323702	    -13.06153008	     -0.99773892	      6.05355037
      0.97083333	      5.43364322	      0.42647340	     -4.83832187	      0.44511945	      1.04473093	      0.33066881	     -3.26508415	      2.13273810	     -4.98812611	    -16.56185988	      5.79672767	     -2.09182378	     19.68007783	      7.18375605	     -0.56472813	     -1.44275025	    -51.71198978	     -1.25028614	      0.00000000	      0.00000000	      0.00000000	      0.00000000	      0.00000000	      0.06193018	    -13.21736031	     -1.02327847	      6.07611072
      0.97500000	      5.32606181	      0.64783435	     -5.01821867	      0.45025321	      1.04543535	      0.33126920	     -3.78207168	      1.88759331	     -4.84024959	    -15.84460797	      5.54264751	     -1.62443324	     19.85361230	      7.66104984	     -0.33029961	     -1.27025381	    -50.68878255	     -0.95950536	      0.00000000	      0.00000000	      0.00000000	      0.00000000	      0.00000000	      0.11029489	    -13.06113041	     -1.35328143	      6.39616100
      0.97916667	      5.33009064	      0.74602704	     -5.25142447	      0.45481916	      1.04603960	      0.33187720	     -4.19232962	      1.73646865	     -4.78658383	    -15.56205346	      5.42085330	     -1.34573528	     20.06284583	      8.09837504	     -0.22576281	     -1.10159971	    -49.86052340	     -0.82461517	      0.00000000	      0.00000000	      0.00000000	      0.00000000	      0.00000000	      0.08782006	    -13.11800112	     -1.56601035	      6.61784068
      0.98333333	      5.29420090	      0.74042665	     -5.43947928	      0.45923944	      1.04645334	      0.33231131	     -4.53170198	      1.70283997	     -4.74530671	    -15.34372807	      5.39815483	     -1.19043388	     20.15624057	      8.62226201	     -0.22872120	     -0.88256644	    -49.16504437	     -0.78181294	      0.00000000	      0.00000000	      0.00000000	      0.00000000	      0.00000000	      0.02909886	    -13.19232705	     -1.59194862	      6.72620077
      0.98750000	      5.23013147	      0.76989735	     -5.62164424	      0.46380068	      1.04681220	      0.33281440	     -4.91239374	      1.63998856	     -4.68742502	    -14.98266534	      5.33175107	     -0.99760617	     20.24322068	      9.14260131	     -0.20278596	     -0.64930091	    -48.38536729	     -0.69558848	      0.00000000	      0.00000000	      0.00000000	      0.00000000	      0.00000000	      0.04026722	    -13.18504157	     -1.67642509	      6.85113517
      0.99166667	      5.23241654	      0.73880861	     -5.86073022	      0.46806518	      1.04690950	      0.33331971	     -5.19605698	      1.60194046	     -4.73245155	    -14.95454242	      5.32483670	     -0.96930046	     20.25674695	      9.68638609	     -0.26014983	     -0.52371599	    -47.93830443	     -0.87417557	      0.00000000	      0.00000000	      0.00000000	      0.00000000	      0.00000000	      0.06509201	    -13.32903295	     -1.70697455	      6.87085085
      0.99583333	      5.06170604	      0.87478202	     -5.94114531	      0.47316558	      1.04736744	      0.33381661	     -5.68666837	      1.48498523	     -4.54825855	    -14.17127120	      5.10346114	     -0.62538686	     20.38128183	     10.13093373	     -0.11382539	     -0.15467384	    -46.62630704	     -0.47220057	      0.00000000	      0.00000000	      0.00000000	      0.00000000	      0.00000000	      0.12435650	    -13.09424131	     -1.91584375	      7.10573097
      1.00000000	      5.01657939	      0.84284944	     -6.11797614	      0.47745416	      1.04757722	      0.33425155	     -5.99494499	      1.47898187	     -4.49102443	    -13.99054352	      5.03679764	     -0.51878358	     20.45394158	     10.60751297	     -0.15195508	      0.13290033	    -45.76458762	     -0.38554632	      0.00000000	      0.00000000	      0.00000000	      0.00000000	      0.00000000	      0.03820115	    -13.17122074	     -1.92548158	      7.20418855
      1.00416667	      4.93137365	      0.95439541	     -6.26038158	      0.48227099	      1.04776921	      0.33481267	     -6.43545842	      1.35061389	     -4.39106556	    -13.47091604	      4.84998640	     -0.37676155	     20.58007119	     11.01936532	     -0.05451996	      0.39285085	    -44.67718331	     -0.17540795	      0.00000000	      0.00000000	      0.00000000	      0.00000000	      0.00000000	      0.14827059	    -13.09155380	     -2.13386473	      7.34974699
      1.00833333	      4.89034099	      0.97114267	     -6.42093621	      0.48675626	      1.04792543	      0.33532048	     -6.83238892	      1.30618617	     -4.29456472	    -13.12495757	      4.72014811	     -0.32878350	     20.73030889	     11.40906519	     -0.05133316	      0.69233707	    -43.63901634	     -0.01091554	      0.00000000	      0.00000000	      0.00000000	      0.00000000	      0.00000000	      0.14232112	    -13.13687145	     -2.22332669	      7.45952066
      1.01250000	      4.84473786	      0.97431531	     -6.56020698	      0.49123041	      1.04803758	      0.33580447	     -7.23755782	      1.28755768	     -4.18005793	    -12.75342999	      4.56644837	     -0.34687183	     20.89804081	     11.79740759	     -0.06815494	      1.00964796	    -42.58063791	      0.15596619	      0.00000000	      0.00000000	      0.00000000	      0.00000000	      0.00000000	      0.12684755	    -13.16822313	     -2.28753951	      7.54733892
      1.01666667	      4.76943564	      0.84668218	     -6.69121135	      0.49546265	      1.04794171	      0.33616069	     -7.51857498	      1.39423102	     -4.12013424	    -12.58995230	      4.60465222	     -0.28828453	     20.95864551	     12.27887503	     -0.22489314	      1.35459678	    -41.71770263	      0.18452729	      0.00000000	      0.00000000	      0.00000000	      0.00000000	      0.00000000	      0.04306240	    -13.22919537	     -2.17369669	      7.61226028
      1.02083333	      4.64697917	      0.91361715	     -6.78742641	      0.50019669	      1.04788476	      0.33671397	     -7.94864346	      1.33973364	     -3.96384329	    -12.01631187	      4.35882399	     -0.37295312	     21.05271608	     12.67318414	     -0.18839990	      1.71640433	    -40.48865665	      0.44854514	      0.00000000	      0.00000000	      0.00000000	      0.00000000	      0.00000000	      0.12630950	    -13.13277757	     -2.32587231	      7.65923159
